<?xml version="1.0" standalone="no"?>
<!DOCTYPE svg PUBLIC "-//W3C//DTD SVG 20010904//EN"
 "http://www.w3.org/TR/2001/REC-SVG-20010904/DTD/svg10.dtd">
<svg version="1.0" xmlns="http://www.w3.org/2000/svg"
 width="700.000000pt" height="700.000000pt" viewBox="0 0 700.000000 700.000000"
 preserveAspectRatio="xMidYMid meet">
<metadata>
Created by potrace 1.11, written by Peter Selinger 2001-2013
</metadata>
<g transform="translate(0.000000,700.000000) scale(0.100000,-0.100000)"
fill="#000000" stroke="none">
<path d="M3077 6123 c-1 0 -148 -4 -327 -7 -323 -7 -456 -11 -685 -21 -303
-15 -473 -24 -525 -30 -25 -3 -79 -7 -120 -10 -41 -3 -86 -8 -100 -10 -14 -2
-56 -6 -95 -10 -93 -9 -264 -41 -345 -66 -225 -68 -443 -231 -578 -432 -122
-179 -166 -324 -217 -707 -3 -25 -8 -56 -10 -70 -2 -14 -6 -50 -10 -80 -3 -30
-8 -71 -10 -90 -7 -54 -14 -118 -21 -200 -3 -41 -7 -91 -9 -110 -13 -122 -19
-358 -19 -720 0 -411 6 -592 29 -817 3 -29 7 -79 10 -110 3 -32 8 -76 10 -98
3 -22 8 -58 10 -80 13 -104 33 -245 55 -378 22 -136 52 -231 105 -337 65 -128
173 -264 273 -343 30 -23 59 -47 66 -53 58 -54 291 -159 396 -178 14 -3 48 -9
77 -15 111 -22 385 -51 623 -66 47 -3 114 -7 150 -10 666 -42 2080 -52 2945
-20 235 9 521 23 595 30 25 2 83 7 130 10 47 3 101 8 120 10 19 2 64 7 100 10
59 6 126 14 235 30 483 71 868 448 940 920 8 57 15 96 20 125 3 14 7 48 11 75
3 28 8 58 10 69 2 10 6 44 10 75 3 31 8 70 10 86 2 17 6 55 10 85 8 63 8 65
18 185 4 50 9 104 11 120 20 171 27 1000 12 1238 -13 182 -16 228 -22 287 -3
30 -8 73 -10 95 -2 22 -7 67 -10 100 -6 52 -38 293 -50 365 -38 244 -62 332
-118 445 -158 320 -452 539 -807 600 -107 19 -99 18 -325 40 -58 6 -131 11
-270 20 -55 4 -125 8 -155 10 -30 2 -134 6 -230 10 -96 3 -218 8 -270 10 -303
12 -1634 27 -1643 18z m1543 -597 c52 -2 181 -7 285 -11 105 -4 210 -9 235
-10 25 -2 99 -6 165 -9 66 -4 140 -9 165 -11 25 -3 70 -7 100 -10 192 -17 177
-15 310 -37 128 -20 266 -110 337 -218 53 -82 73 -139 89 -260 2 -19 6 -46 9
-60 10 -49 13 -66 25 -160 6 -52 13 -106 15 -120 8 -53 23 -205 40 -400 24
-279 24 -1027 1 -1275 -3 -22 -7 -74 -11 -115 -3 -41 -8 -88 -10 -105 -2 -16
-7 -57 -10 -90 -3 -33 -7 -71 -9 -85 -3 -14 -7 -50 -11 -81 -3 -31 -7 -65 -9
-75 -3 -18 -13 -76 -21 -134 -26 -170 -35 -202 -84 -289 -32 -58 -114 -140
-173 -175 -54 -31 -136 -62 -193 -70 -60 -10 -163 -24 -220 -30 -109 -13 -133
-15 -225 -21 -94 -6 -118 -8 -295 -19 -49 -3 -155 -8 -235 -11 -80 -3 -188 -8
-240 -10 -550 -22 -1725 -22 -2305 1 -327 12 -555 23 -614 28 -25 3 -91 7
-146 11 -55 3 -111 8 -125 10 -14 2 -56 6 -95 10 -297 27 -423 72 -533 189
-100 108 -123 170 -157 421 -3 22 -8 55 -11 73 -3 17 -7 48 -9 67 -3 19 -7 50
-9 68 -3 17 -7 59 -11 92 -4 33 -8 76 -11 95 -2 19 -7 73 -10 120 -3 47 -7
101 -10 120 -23 185 -23 1031 0 1260 2 19 7 77 11 128 3 51 8 101 10 111 2 9
6 50 10 90 3 40 8 80 9 89 2 9 7 44 11 77 4 32 8 66 10 75 3 15 13 78 21 135
24 162 35 199 80 274 60 102 144 176 243 216 54 22 155 44 276 59 37 5 61 8
195 21 25 2 88 7 140 10 52 4 115 8 140 10 41 4 124 8 400 20 52 3 208 8 345
11 138 3 252 8 254 10 5 4 1744 -4 1861 -10z"/>
<path d="M2770 4808 c-89 -20 -168 -95 -201 -190 -17 -50 -18 -111 -19 -1044
0 -672 4 -1002 11 -1025 25 -81 85 -156 152 -191 50 -25 161 -35 213 -18 33
11 446 241 789 440 55 32 127 73 160 90 33 18 65 36 70 40 6 4 30 19 55 32 25
14 131 74 235 134 105 59 248 140 319 180 141 79 196 124 228 188 30 58 35
159 13 226 -28 83 -85 132 -285 245 -96 54 -195 110 -220 125 -25 15 -65 39
-90 52 -25 14 -162 92 -305 173 -143 81 -273 156 -290 165 -16 9 -100 57 -185
105 -85 49 -173 98 -195 110 -22 13 -78 45 -125 72 -168 97 -228 114 -330 91z
m780 -1017 c206 -118 376 -215 378 -216 1 -1 -64 -40 -145 -86 -81 -46 -155
-88 -165 -94 -9 -5 -29 -17 -45 -26 -15 -8 -102 -57 -193 -109 -91 -51 -183
-103 -205 -115 l-40 -23 1 442 c1 242 2 444 3 448 2 12 21 2 411 -221z"/>
</g>
</svg>
